HIERARCHY
ROOT Hips
{
  OFFSET 40.9192 92.6879 18.85
  CHANNELS 6 Xposition Yposition Zposition Zrotation Xrotation Yrotation
  JOINT LeftUpLeg
  {
    OFFSET 8.64259 1.95398 -2.38835
    CHANNELS 3 Zrotation Xrotation Yrotation
    JOINT LeftLeg
    {
      OFFSET 43.7702 0 0
      CHANNELS 3 Zrotation Xrotation Yrotation
      JOINT LeftFoot
      {
        OFFSET 40.6238 0 0
        CHANNELS 3 Zrotation Xrotation Yrotation
        JOINT LeftToeBase
        {
          OFFSET 12.7242 0 0
          CHANNELS 3 Zrotation Xrotation Yrotation
          End Site
          {
            OFFSET 0 0 0
          }
        }
      }
    }
  }
  JOINT RightUpLeg
  {
    OFFSET -8.2249 1.95398 -2.59336
    CHANNELS 3 Zrotation Xrotation Yrotation
    JOINT RightLeg
    {
      OFFSET 43.5653 0 0
      CHANNELS 3 Zrotation Xrotation Yrotation
      JOINT RightFoot
      {
        OFFSET 40.6238 0 0
        CHANNELS 3 Zrotation Xrotation Yrotation
        JOINT RightToeBase
        {
          OFFSET 12.7242 0 0
          CHANNELS 3 Zrotation Xrotation Yrotation
          End Site
          {
            OFFSET 0 0 0
          }
        }
      }
    }
  }
  JOINT Spine
  {
    OFFSET 0.165834 0.87714 6.61349
    CHANNELS 3 Zrotation Xrotation Yrotation
    JOINT Spine1
    {
      OFFSET 7.38963 1.71661e-005 0
      CHANNELS 3 Zrotation Xrotation Yrotation
      JOINT Spine2
      {
        OFFSET 11.9445 1.14441e-005 0
        CHANNELS 3 Zrotation Xrotation Yrotation
        JOINT Spine3
        {
          OFFSET 14.7254 4.19617e-005 0
          CHANNELS 3 Zrotation Xrotation Yrotation
          JOINT Spine4
          {
            OFFSET 10.9679 0 0
            CHANNELS 3 Zrotation Xrotation Yrotation
            JOINT RightShoulder
            {
              OFFSET 2.46616 -1.6653 3.69651
              CHANNELS 3 Zrotation Xrotation Yrotation
              JOINT RightArm
              {
                OFFSET 13.0012 0 0
                CHANNELS 3 Zrotation Xrotation Yrotation
                JOINT RightForeArm
                {
                  OFFSET 28.7848 1.52588e-005 0
                  CHANNELS 3 Zrotation Xrotation Yrotation
                  JOINT RightHand
                  {
                    OFFSET 26.5688 1.52588e-005 0
                    CHANNELS 3 Zrotation Xrotation Yrotation
                    End Site
                    {
                      OFFSET 0 0 0
                    }
                  }
                }
              }
            }
            JOINT LeftShoulder
            {
              OFFSET 2.38034 -1.29275 -3.7523
              CHANNELS 3 Zrotation Xrotation Yrotation
              JOINT LeftArm
              {
                OFFSET 16.3182 6.10351e-005 0
                CHANNELS 3 Zrotation Xrotation Yrotation
                JOINT LeftForeArm
                {
                  OFFSET 27.0901 0 0
                  CHANNELS 3 Zrotation Xrotation Yrotation
                  JOINT LeftHand
                  {
                    OFFSET 24.5451 1.52588e-005 0
                    CHANNELS 3 Zrotation Xrotation Yrotation
                    End Site
                    {
                      OFFSET 0 0 0
                    }
                  }
                }
              }
            }
            JOINT Neck
            {
              OFFSET 5.0226 -0.0266342 0
              CHANNELS 3 Zrotation Xrotation Yrotation
              JOINT Head
              {
                OFFSET 6.69363 2.86102e-005 0
                CHANNELS 3 Zrotation Xrotation Yrotation
                End Site
                {
                  OFFSET 0 0 0
                }
              }
            }
          }
        }
      }
    }
  }
}
MOTION
Frames:	15
Frame Time:	0.0416667
37.0886 97.4174 -244.61 -86.7888 -86.6742 -86.8287 -171.658 4.92747 88.5881 -15.2189 11.1962 -3.43028 68.271 8.07001 5.37553 27.4727 -1.34567 2.54338 174.024 1.85341 90.7378 -11.4462 -12.0136 -0.242994 68.8395 -4.33398 -2.32751 28.3141 -0.169986 2.13537 0.0964411 7.12173 -89.851 12.6301 0.262708 0.266945 0.959104 0.274197 0.255123 -21.5759 0.170323 0.333554 -1.56329 0.170336 0.333563 91.3805 -49.2965 -98.8525 27.5246 -12.2571 -0.951416 -4.30543 -29.7052 -41.3378 -4.85961 -0.821068 5.12183 -97.6219 -49.582 67.3203 -23.8784 17.5517 1.53671 1.72557 11.6264 -31.7162 7.80829 0.50747 2.33568 14.458 1.71322 -1.11604 -6.02472 1.90962 3.04678 
37.5597 97.1397 -244.284 -85.2317 -86.8173 -85.1088 -172.173 5.65351 88.1095 -17.1441 10.7023 -2.90698 69.2787 9.26275 5.22651 27.735 -1.15353 2.76558 174.211 2.9261 90.7421 -14.0178 -11.7159 -0.487431 70.3851 -4.91562 -2.56625 28.5248 -0.148494 1.99472 0.214048 7.09593 -89.9084 12.6818 0.468918 0.127682 1.01097 0.474093 0.106912 -21.5247 0.40886 0.262711 -1.51205 0.408872 0.262714 91.1498 -48.6857 -99.3414 28.8373 -10.7064 0.912862 -11.6842 -31.2468 -45.6328 -2.43613 -0.738476 5.10592 -98.9737 -49.5396 65.3291 -24.8182 16.3927 2.17982 2.52646 11.7949 -31.9856 8.49196 0.562263 2.48616 12.7242 1.25364 -0.394324 -4.30344 1.32509 1.77417 
38.0752 96.8634 -243.662 -90.9323 -87.465 -90.153 -172.321 5.94872 88.2902 -19.1699 11.1689 -2.50758 70.4632 10.2721 5.68856 27.4123 -1.15511 0.577964 175.429 3.34975 91.5806 -16.489 -9.78624 -1.32508 71.1282 -5.35528 -2.77108 30.314 0.0585569 0.523036 0.183941 7.16495 -89.9751 12.5441 0.377351 0.00583666 0.873206 0.377246 -0.0107941 -21.6623 0.358149 0.118976 -1.64971 0.358155 0.118973 91.3316 -48.932 -99.005 28.3444 -10.5461 0.791587 -11.0926 -30.6708 -45.4262 -2.57701 -0.735939 5.11789 -98.868 -49.4899 65.4659 -25.0333 16.5062 2.06696 2.21568 11.2371 -32.0606 8.85566 0.578562 2.43295 12.5336 1.14623 -1.01231 -3.53947 1.376 2.59203 
38.4425 96.4917 -243.126 -97.7199 -87.6029 -97.0643 -172.173 5.5137 88.0911 -19.7564 12.4715 -2.79836 71.323 11.4068 6.6873 27.9623 -0.744203 0.852113 177.131 6.89582 92.2949 -24.6632 -7.70868 -2.70519 71.6682 -5.71513 -2.91134 33.236 0.289905 -2.6961 0.16736 7.2514 -89.9455 12.371 0.358522 0.0681686 0.700097 0.361165 0.0523157 -21.8354 0.321456 0.172769 -1.82273 0.321449 0.172758 91.521 -48.9416 -98.7086 28.4106 -10.2111 1.04176 -11.1775 -30.743 -45.611 -3.82393 -0.8071 5.133 -98.6362 -49.0359 65.6435 -25.4524 16.5778 1.88967 2.30129 11.1131 -32.2815 8.19698 0.483218 1.82361 12.8369 1.23787 -1.0892 -3.08388 1.49416 2.52463 
38.8266 96.2028 -242.558 -102.301 -87.2349 -102.168 -172.399 5.4194 87.4391 -21.1402 13.7215 -2.90902 71.2331 11.5098 7.47915 29.1104 0.171843 0.918037 178.043 12.8417 92.2598 -35.5595 -5.05893 -3.17832 69.7416 -5.10626 -2.70236 38.4074 0.341763 -7.03975 0.124011 7.36168 -89.8118 12.1499 0.33554 0.33833 0.47899 0.350115 0.323233 -22.056 0.218343 0.423532 -2.04335 0.218351 0.423537 91.3929 -49.4216 -98.8064 29.0508 -9.57764 1.54433 -10.9392 -27.9105 -46.2096 -4.61883 -0.815816 4.98388 -98.4887 -48.6909 65.7383 -24.5061 16.9188 1.55939 2.25857 10.7816 -33.212 8.43936 0.568029 2.5807 12.8153 1.36697 -1.76444 -2.38722 1.80001 3.14384 
39.3476 96.1488 -241.413 -98.5105 -88.068 -97.7666 -172.447 5.0879 87.6641 -21.3849 12.8124 -2.61924 72.3033 12.0869 6.61342 28.9514 0.152691 -0.179897 178.1 17.2119 92.9199 -40.0125 -4.46593 -2.5971 69.8438 -5.19377 -2.75378 39.9623 0.314048 -7.39163 0.011695 7.40702 -89.9175 12.0597 0.0623035 0.157824 0.388765 0.0691906 0.154909 -22.1463 0.0119863 0.169249 -2.13362 0.0119938 0.169247 91.8441 -49.3377 -98.1252 29.3705 -9.11368 2.39936 -10.4977 -25.9726 -46.7141 -6.38614 -0.925533 5.40026 -99.5437 -49.4633 64.4707 -22.3326 17.3681 0.4198 1.97342 10.5296 -33.6628 8.16381 0.545767 2.52137 12.0513 1.84009 -1.36548 -1.65544 2.19929 3.63784 
39.7394 96.2727 -239.675 -117.165 -88.9705 -115.915 -172.507 2.94332 88.0242 -19.6218 14.4572 -2.35889 72.266 12.4948 7.33865 28.6772 0.0104284 -0.90764 177.778 19.2955 93.4845 -36.7007 -4.32272 -1.89357 68.0432 -4.3127 -2.34643 40.1715 0.334335 -6.70385 -0.150021 7.4711 -89.9919 11.9318 -0.294407 0.0479229 0.260862 -0.292014 0.0608222 -22.2746 -0.295207 -0.0427742 -2.26195 -0.295201 -0.0427788 91.6751 -49.2814 -98.3989 29.4433 -8.53962 3.85085 -11.7677 -25.464 -47.7844 -6.10625 -0.956177 6.10713 -99.296 -49.1483 64.7175 -21.7084 17.0996 -0.650382 2.43876 10.1835 -34.8804 8.22262 0.512677 2.12631 11.7212 1.95186 -1.36248 -2.67908 2.27842 3.88552 
40.154 96.1517 -237.748 146.076 -89.7904 147.812 -172.082 1.71399 88.7971 -18.9348 15.9819 -2.49032 73.1897 13.0233 6.89424 28.4849 -0.126486 -1.03296 177.363 21.0221 93.7567 -30.084 -5.58767 -1.09661 66.2129 -3.51893 -1.96058 39.3506 0.311672 -7.76535 -0.299944 7.5187 -90.0608 11.8365 -0.625045 -0.0546988 0.165717 -0.62685 -0.0271384 -22.3705 -0.57971 -0.240028 -2.35784 -0.579709 -0.240027 92.4322 -49.1744 -97.2429 29.4855 -8.33764 3.89341 -13.193 -27.1844 -47.3958 -7.70724 -0.961932 4.52607 -99.3818 -48.8992 64.5009 -20.2225 16.9584 -1.70309 3.08866 9.52783 -37.4114 7.96124 0.487331 2.00904 11.5758 2.07984 -1.63203 -3.12986 2.44594 3.98029 
40.4648 95.7169 -235.413 -85.178 -88.6997 -83.4776 -171.369 -0.0469938 88.8062 -18.2321 14.7149 -3.15775 74.8468 13.9757 6.41441 29.287 0.414289 -0.149948 177.947 23.0586 94.1589 -24.0261 -7.45049 -1.07326 64.0622 -2.74297 -1.56953 37.6296 0.355762 -6.65416 -0.19158 7.57333 -90.0339 11.7272 -0.39691 -0.0258479 0.0563354 -0.397668 -0.00835346 -22.4793 -0.370795 -0.143946 -2.46662 -0.370797 -0.143948 92.2844 -49.7274 -97.3668 28.73 -8.12028 3.86377 -12.5812 -28.5213 -46.2272 -4.52932 -0.906762 6.6275 -99.4251 -48.7282 64.3742 -18.2279 16.7801 -3.34719 3.10933 8.83439 -38.6298 8.30255 0.453041 1.44331 11.6945 1.95541 -1.6742 -3.66372 2.31581 3.93833 
40.5492 95.1641 -232.198 -77.3171 -88.8452 -76.4017 -171.087 -2.63873 88.5766 -17.2074 14.8387 -3.60564 75.5361 14.7857 6.53227 30.6256 1.47057 -0.170856 177.735 24.1713 93.8029 -19.3193 -7.72456 -0.915629 63.3724 -2.33455 -1.3332 37.9092 0.366626 -5.8384 -0.265079 7.6466 -89.9828 11.581 -0.519246 0.0876923 -0.0898521 -0.51488 0.110458 -22.6258 -0.521595 -0.0724216 -2.61319 -0.5216 -0.0724261 91.5142 -50.6604 -98.3653 27.2521 -7.40042 4.37836 -12.6089 -29.7815 -44.5823 -3.21665 -0.818149 6.37337 -99.6945 -48.6212 63.9393 -17.0893 15.9929 -4.74098 3.48586 8.8416 -38.9631 8.02923 0.468333 1.76292 10.8522 2.26108 -1.56811 -2.72201 2.61876 4.12116 
40.7806 94.422 -228.709 -87.467 -89.2866 -86.7828 -171.294 -4.21106 88.2221 -18.9551 15.9273 -3.28061 75.1181 15.287 8.82787 33.4468 3.67186 0.00353609 177.337 24.8956 93.7972 -18.1009 -6.55073 -0.406095 63.5497 -2.40297 -1.37933 38.4766 0.371854 -5.61379 -0.357656 7.73239 -90.014 11.4091 -0.718142 0.0444459 -0.26164 -0.715497 0.076004 -22.7983 -0.698309 -0.173454 -2.78569 -0.698302 -0.173454 91.8141 -51.1237 -97.8181 26.2973 -7.52944 4.44273 -11.18 -30.0861 -42.9448 -2.96791 -0.826361 7.12243 -99.9522 -48.7178 63.5977 -16.1332 15.8162 -5.94432 2.8249 8.84131 -37.5455 8.64193 0.49728 1.72835 10.3707 2.49846 -1.31022 -2.76224 2.79458 4.27069 
40.8002 93.8959 -224.094 61.772 -89.4475 62.7627 -171.486 -4.98075 88.9515 -22.4529 18.6877 -2.40766 73.0331 13.6356 9.51767 39.0818 8.10769 0.487121 177.582 25.9414 94.1193 -22.7656 -6.25923 -0.526951 63.1691 -2.35464 -1.35869 37.6231 0.362453 -6.26162 -0.535004 7.721 -90.1354 11.4318 -1.12766 -0.155166 -0.23869 -1.1334 -0.105379 -22.7772 -1.0289 -0.486934 -2.7645 -1.0289 -0.486943 91.7828 -52.0342 -97.6881 24.9811 -7.00179 5.05353 -14.1037 -32.1318 -44.1791 -1.97754 -0.763198 5.58229 -100.271 -48.7778 63.1542 -16.3919 16.04 -5.95942 2.13559 9.4517 -35.2308 8.73867 0.497006 1.65754 9.9458 2.72981 -1.29467 -2.94725 3.01774 4.79627 
40.7698 93.5126 -218.706 80.0226 -88.8268 81.8701 -171.484 -5.87782 90.4078 -26.4411 22.1226 -1.35528 69.2785 11.0411 10.6401 44.7377 12.5719 0.757906 177.903 26.7776 95.1009 -30.6832 -3.69851 -0.670872 64.8455 -2.9842 -1.68889 35.5365 0.367335 -5.59845 -0.650796 7.71721 -90.3209 11.4367 -1.44471 -0.492805 -0.233504 -1.46499 -0.428733 -22.7729 -1.22981 -0.904262 -2.76023 -1.2298 -0.904246 91.8626 -51.9769 -97.5794 25.3814 -5.89938 6.38911 -13.6184 -31.6505 -43.6629 -1.61931 -0.756992 6.98095 -100.252 -48.9091 63.2316 -18.1909 15.8385 -4.46373 2.37504 10.8047 -33.4525 7.81122 0.601343 3.38317 10.6478 2.98249 -0.454261 -4.24665 3.04215 4.1314 
40.4407 93.3179 -212.948 108.892 -88.3426 111.467 -170.595 -3.48678 93.1112 -36.1892 23.0312 -0.84314 62.5322 3.9501 5.21369 51.6403 18.5457 3.32601 178.538 24.8455 96.4373 -35.6139 -2.47075 -1.00663 68.4182 -4.37115 -2.36043 29.7608 0.213962 -2.83139 -0.743042 7.72891 -90.4203 11.4115 -1.67456 -0.668122 -0.25849 -1.70235 -0.593766 -22.7987 -1.39635 -1.14057 -2.78604 -1.39635 -1.14057 91.5164 -51.7557 -98.1431 26.0816 -5.35516 6.50926 -12.4275 -31.7458 -41.7822 -0.533681 -0.687649 7.919 -100.241 -48.6461 63.1474 -20.9822 15.5688 -1.38791 1.67734 10.8892 -30.861 9.59295 0.613065 2.29302 9.8758 3.29162 -0.790024 -4.14469 3.41841 4.63589 
39.9436 93.0971 -207.36 133.164 -88.7108 135.714 -170.077 2.74671 95.3694 -48.6762 24.2062 -0.921667 48.2943 -7.15201 -2.82138 51.0727 19.1014 8.15899 179.528 22.249 97.5403 -38.7482 -1.93315 -1.88116 72.9776 -5.92462 -2.95143 28.0411 0.10112 -1.92781 -0.602068 7.67699 -90.3749 11.5161 -1.37307 -0.606486 -0.154182 -1.39843 -0.545462 -22.6925 -1.12731 -0.991134 -2.67984 -1.12732 -0.991139 91.8954 -51.6261 -97.5971 27.0033 -5.58528 6.30542 -12.835 -31.8713 -41.6388 -1.3564 -0.754347 7.94033 -99.288 -48.4039 64.4563 -22.8539 16.239 0.516051 0.865525 11.5187 -28.7441 10.0609 0.823682 4.04877 9.58825 3.01431 -1.44006 -4.5439 3.25723 4.71585 
